# xmcd CD database file
#
# Track frame offsets:
#	150
#	9436
#	21999
#	33475
#	51897
#	64041
#	75136
#	88604
#	99745
#	111240
#	126501
#	141753
#	166383
#	211658
#	221691
#	225737
#	238136
#	245486
#	259070
#	271290
#	280629
#	289814
#	305982
#
# Disc length: 4389 seconds
#
# Revision: 0
# Processed by: cddbd v1.5.2PL0 Copyright (c) Steve Scherf et al.
# Submitted via: CDex 1.70beta2
#
DISCID=4e112317
DTITLE=Various Artist - WFMU's To Serve Man CD 2
DYEAR=2007
DGENRE=Salsa
TTITLE0=The Martinis - Holiday Cheer
TTITLE1=Juan El Matematico - Loco Te Patina El Coco
TTITLE2=The Scientists - Blood Red River
TTITLE3=Dis - Whiteness
TTITLE4=Zani Diabate and the Super Djata Band - Tindoro
TTITLE5=Shiva's Head Band - Chili Verde
TTITLE6=Tito Puente - Ran Kan Kan
TTITLE7=Andrew Leigh - Fresh Brown Eggs
TTITLE8=Cab Calloway - Everybody Eats When They Come to My House
TTITLE9=The Fifth Dimension - Stoned Soul Picnic
TTITLE10=Gal Costa - Tuareg
TTITLE11=Les Thugs - Moon Over Marin
TTITLE12=Mike's Meat Megamix
TTITLE13=Dirtbombs - High Octaine Salvation
TTITLE14=Pastor John Rydgren - The Lord Is My Shepherd
TTITLE15=Ergo Phizmiz - Many Feet Make One Path
TTITLE16=Jimmie Dodd and the Frontier Men - Be Sure You're Right
TTITLE17=Bill Monroe - Blue Moon of Kentucky
TTITLE18=Mikki Wilcox - All Right, OK, You Win
TTITLE19=Ed Shepp - Pumpkin Cake Recipe
TTITLE20=Life and Soul - Bye Bye Baby
TTITLE21=Kenny G - Songbird
TTITLE22=Songbird - The "Hey, Klause Schultze! I Gotta Sizzlin' Hot Wurst Burstin' on the Grill for You" Remix
EXTD=YEAR: 2007
EXTT0=
EXTT1=
EXTT2=
EXTT3=
EXTT4=
EXTT5=
EXTT6=
EXTT7=
EXTT8=
EXTT9=
EXTT10=
EXTT11=
EXTT12=
EXTT13=
EXTT14=
EXTT15=
EXTT16=
EXTT17=
EXTT18=
EXTT19=
EXTT20=
EXTT21=
EXTT22=
PLAYORDER=
